Coordinates
version=1
nRows=13
nColumns=40
inDegrees=yes

Units are S.I. units (second, meters, Newtons, ...)
Angles are in degrees.

endheader
time	pelvis_tilt	pelvis_list	pelvis_rotation	pelvis_tx	pelvis_ty	pelvis_tz	hip_flexion_r	hip_adduction_r	hip_rotation_r	knee_angle_r	knee_angle_r_beta	ankle_angle_r	subtalar_angle_r	mtp_angle_r	hip_flexion_l	hip_adduction_l	hip_rotation_l	knee_angle_l	knee_angle_l_beta	ankle_angle_l	subtalar_angle_l	mtp_angle_l	lumbar_extension	lumbar_bending	lumbar_rotation	arm_flex_r	arm_add_r	arm_rot_r	elbow_flex_r	pro_sup_r	wrist_flex_r	wrist_dev_r	arm_flex_l	arm_add_l	arm_rot_l	elbow_flex_l	pro_sup_l	wrist_flex_l	wrist_dev_l
     29.88750000	     -2.29480583	     -3.78167508	     -2.04685747	      0.90455126	      0.93768566	      0.44995099	     33.08422300	     -4.64138787	     -6.81490568	     58.52847799	     58.52847799	      3.48543425	    -15.78743609	      2.95053982	      7.84760880	     -3.39455594	    -11.40410297	     15.69188278	     15.69188278	     12.09397145	     -8.60736866	     -4.86587541	    -10.05218654	      4.83566104	      2.20519253	     -4.30269240	    -11.76080555	     -7.21946070	     23.02874777	     46.93407516	      0.00000000	      0.00000000	     22.30335140	    -14.52335459	      0.33318988	     43.27962393	     46.15113379	      0.00000000	      0.00000000
     29.89957143	     -2.32815795	     -3.78292267	     -2.25339930	      0.90437583	      0.93749334	      0.45006210	     33.21098969	     -4.41508810	     -6.92496685	     55.12197584	     55.12197584	      3.33075546	    -15.11209743	      2.55136564	      7.11848550	     -3.31950580	    -11.50908915	     15.23436676	     15.23436676	     12.30385190	     -8.66988029	     -5.06932782	    -10.16485721	      4.95962205	      2.39736694	     -5.63800025	    -11.86354538	     -7.63877131	     22.12554267	     47.00263266	      0.00000000	      0.00000000	     22.94412121	    -14.72711363	     -0.38556743	     45.46653045	     46.25264214	      0.00000000	      0.00000000
     29.91164286	     -2.49040293	     -3.80445872	     -2.43107039	      0.90422504	      0.93701246	      0.45023952	     33.23600561	     -4.18279117	     -7.21198442	     51.26771843	     51.26771843	      2.55801504	    -14.56394532	      0.42774522	      6.52646820	     -3.25520354	    -11.47026752	     14.73923126	     14.73923126	     12.26883100	     -8.94273694	     -5.77834821	    -10.15612008	      5.09565428	      1.72506381	     -6.32978923	    -11.89521491	     -9.06195666	     21.35144043	     47.17508313	      0.00000000	      0.00000000	     22.21623885	    -15.35158478	     -2.30439295	     49.65581698	     46.47985748	      0.00000000	      0.00000000
     29.92371429	     -2.60990299	     -3.81530159	     -2.67102762	      0.90411290	      0.93652098	      0.45059823	     33.13425034	     -3.90587565	     -7.51113524	     47.31551975	     47.31551975	      2.49676022	    -13.44836448	      0.34292307	      5.88630694	     -3.20492403	    -11.59336040	     14.29511219	     14.29511219	     12.53066254	     -8.95341884	     -5.95689579	    -10.14917964	      5.21162799	      2.05912947	     -7.62752300	    -12.06093132	     -9.31452114	     20.69098989	     47.21875175	      0.00000000	      0.00000000	     23.03592785	    -15.38432752	     -2.75624641	     51.11285091	     46.54854788	      0.00000000	      0.00000000
     29.93578571	     -2.81024193	     -3.78674968	     -2.91812296	      0.90409105	      0.93582001	      0.45109784	     32.93427592	     -3.64150330	     -7.90503330	     43.07776075	     43.07776075	      2.08270489	    -12.24405949	     -0.71820203	      5.29137751	     -3.11533301	    -11.69789843	     13.76522584	     13.76522584	     12.57683718	     -9.05710686	     -6.49617046	    -10.10748767	      5.28457089	      1.99113019	     -8.77611996	    -12.22000444	    -10.05291084	     20.67868334	     47.28370954	      0.00000000	      0.00000000	     22.89178130	    -15.66365672	     -3.83803015	     54.22599196	     46.68754068	      0.00000000	      0.00000000
     29.94785714	     -3.00623591	     -3.82326445	     -3.16775140	      0.90411681	      0.93506668	      0.45178581	     32.59041186	     -3.25324628	     -8.39918154	     38.73947507	     38.73947507	      2.01390479	    -10.67036567	     -0.37677689	      4.76945256	     -3.12372714	    -11.80761549	     13.42099362	     13.42099362	     12.86232259	     -9.09942159	     -6.67511630	     -9.99286492	      5.44279356	      2.13198482	     -9.84859065	    -12.45624820	    -10.18005926	     20.31295501	     47.30218502	      0.00000000	      0.00000000	     23.46785696	    -15.82069158	     -4.13664971	     55.36001311	     46.73425225	      0.00000000	      0.00000000
     29.95992857	     -3.12971063	     -3.70383298	     -3.49234818	      0.90447530	      0.93421806	      0.45261132	     32.08033001	     -3.02522714	     -8.98637336	     34.41948151	     34.41948151	      1.77032215	     -8.61694841	     -0.74334166	      3.99907266	     -2.92840714	    -12.04917376	     12.77905148	     12.77905148	     12.86570490	     -9.14569468	     -7.30491582	    -10.03318078	      5.36124675	      2.14725867	    -10.97388407	    -12.59998146	    -10.76684632	     20.76690574	     47.32391834	      0.00000000	      0.00000000	     23.03028046	    -16.06835397	     -5.27319270	     59.11746300	     46.88278234	      0.00000000	      0.00000000
     29.97200000	     -3.30152261	     -3.68880311	     -3.77996247	      0.90486889	      0.93324391	      0.45363391	     31.48195301	     -2.58784014	     -9.58654924	     30.09640840	     30.09640840	      1.56628313	     -6.68928268	     -0.05529436	      3.40572679	     -2.88907960	    -12.20617320	     12.40270267	     12.40270267	     13.14422307	     -9.18502343	     -7.51183651	     -9.91765615	      5.45474226	      2.38920021	    -11.91148663	    -12.79294565	    -10.87856523	     20.53298395	     47.33453627	      0.00000000	      0.00000000	     23.41112463	    -16.16067653	     -5.59145977	     60.38310421	     46.93152690	      0.00000000	      0.00000000
     29.98407143	     -3.57261491	     -3.46416527	     -4.15292808	      0.90538388	      0.93186184	      0.45494663	     31.08302268	     -2.27312036	     -9.98195673	     26.18646108	     26.18646108	      1.25555645	     -4.87055032	      0.77152768	      2.93558127	     -2.64478066	    -12.50551168	     12.06301200	     12.06301200	     13.42355293	     -9.23898254	     -7.70183056	     -9.59713877	      5.20540579	      2.61945194	    -12.69713825	    -12.79510214	    -10.96407300	     20.41777400	     47.33813840	      0.00000000	      0.00000000	     23.77447729	    -16.32161935	     -5.87298430	     61.57760838	     46.97531041	      0.00000000	      0.00000000
     29.99614286	     -3.42466015	     -3.36413992	     -4.44500528	      0.90654896	      0.93095709	      0.45612754	     30.18622307	     -2.09602728	    -11.23707070	     22.81499619	     22.81499619	      1.65384871	     -1.67070192	      2.41690005	      1.75241021	     -2.43814313	    -12.73788703	     11.29515129	     11.29515129	     13.53096546	     -9.10083869	     -8.19921478	     -9.93327208	      5.16442340	      2.65555455	    -13.73655251	    -13.02569560	    -11.50968539	     21.31589530	     47.32952857	      0.00000000	      0.00000000	     22.83739262	    -16.39916456	     -7.00901748	     66.05612732	     47.13127318	      0.00000000	      0.00000000
     30.00821429	     -3.50587731	     -3.30256178	     -4.71720381	      0.90754191	      0.92962041	      0.45764797	     29.61708296	     -1.68287619	    -11.91026983	     19.93144916	     19.93144916	      2.00428683	      0.14507721	      5.29313103	      1.09753761	     -2.36201973	    -12.77602247	     11.05627293	     11.05627293	     13.77612006	     -9.35457555	     -8.50740713	     -9.88709629	      5.13014775	      2.27414590	    -14.09690659	    -13.19178467	    -11.90435324	     21.76712467	     47.32120560	      0.00000000	      0.00000000	     22.02176795	    -16.69683177	     -8.31726507	     68.97645716	     47.28896627	      0.00000000	      0.00000000
     30.02028571	     -3.62948763	     -3.18576124	     -5.01030796	      0.90868518	      0.92804009	      0.45935234	     29.15867377	     -1.30458214	    -12.47103517	     17.58426803	     17.58426803	      1.69774717	      1.34296951	      6.08843234	      0.52914864	     -2.25077483	    -12.93800547	     10.91441033	     10.91441033	     14.18678715	     -9.43904056	     -8.56894617	     -9.67846925	      5.05227009	      2.56496310	    -14.60993010	    -13.19521222	    -11.94472585	     21.64705995	     47.32203629	      0.00000000	      0.00000000	     22.23434695	    -16.65846414	     -8.47110022	     69.88456619	     47.31777347	      0.00000000	      0.00000000
     30.03235714	     -3.56165704	     -3.23866769	     -5.22660885	      0.91015588	      0.92674188	      0.46117457	     28.46363055	     -0.87259893	    -13.39258856	     15.78200733	     15.78200733	      1.54291652	      2.65909800	      6.95970027	     -0.26399196	     -2.32657432	    -13.06835552	     10.80644968	     10.80644968	     14.68658665	     -9.45761539	     -8.46385382	     -9.73259977	      5.11920659	      2.87054908	    -15.10447794	    -13.25396619	    -12.07529915	     21.71729286	     47.32122279	      0.00000000	      0.00000000	     22.15177980	    -16.49563319	     -8.71409579	     71.50168180	     47.36456016	      0.00000000	      0.00000000
